<?xml version="1.0" encoding="UTF-8"?>
<svg id="Vrstva_5" xmlns="http://www.w3.org/2000/svg" version="1.1" viewBox="0 0 403.68 373.18">
  <!-- Generator: Adobe Illustrator 29.5.0, SVG Export Plug-In . SVG Version: 2.1.0 Build 137)  -->
  <defs>
    <style>
      .st0 {
        fill: #82a798;
      }

      .st1 {
        fill: #1d1d1b;
      }
    </style>
  </defs>
  <circle class="st0" cx="169.32" cy="159.66" r="32.65"/>
  <path class="st0" d="M23.32,110.25h74.89c17.33,0,31.39,14.08,31.39,31.39v6.92c0,17.33-14.08,31.39-31.39,31.39h-43.47c-17.33,0-31.39-14.08-31.39-31.39v-38.31h-.02Z"/>
  <path class="st0" d="M40.06,175.73h44.93c28.22,0,51.12,22.91,51.12,51.12v1.46c0,25.07-20.36,45.45-45.45,45.45h-55.84c-6.34,0-11.51-5.16-11.51-11.51v-69.79c0-9.23,7.5-16.73,16.73-16.73Z"/>
  <path class="st0" d="M175.17,217.51h4.41v9.98c-1.29,1.03-2.79,1.82-4.52,2.36-1.71.56-3.49.81-5.29.81-2.55,0-4.86-.56-6.92-1.67s-3.66-2.64-4.84-4.61c-1.18-1.95-1.76-4.18-1.76-6.62s.58-4.67,1.76-6.62,2.79-3.49,4.86-4.61c2.06-1.11,4.39-1.67,6.96-1.67,2.1,0,4.01.34,5.72,1.05,1.71.69,3.17,1.71,4.33,3.04l-2.94,2.87c-1.91-1.91-4.22-2.87-6.92-2.87-1.78,0-3.34.36-4.71,1.11s-2.44,1.78-3.21,3.11-1.16,2.87-1.16,4.59.39,3.17,1.16,4.52c.77,1.33,1.84,2.4,3.21,3.15,1.37.77,2.94,1.14,4.67,1.14,1.95,0,3.69-.43,5.16-1.29v-7.8l.02.02Z"/>
  <path class="st0" d="M208.34,230.71l-5.12-7.35c-.21.02-.54.04-.96.04h-5.66v7.31h-4.65v-25.07h10.33c2.16,0,4.07.36,5.68,1.07s2.85,1.74,3.71,3.09c.86,1.33,1.29,2.94,1.29,4.76s-.45,3.51-1.37,4.86-2.23,2.38-3.96,3.04l5.76,8.25h-5.04ZM206.67,210.84c-1.05-.86-2.59-1.29-4.63-1.29h-5.44v9.98h5.44c2.04,0,3.58-.43,4.63-1.31s1.59-2.1,1.59-3.71-.51-2.83-1.59-3.69Z"/>
  <path class="st0" d="M243.72,224.92h-12.53l-2.46,5.81h-4.8l11.29-25.07h4.59l11.31,25.07h-4.86l-2.51-5.81h-.02ZM242.17,221.26l-4.74-10.97-4.69,10.97h9.43Z"/>
  <path class="st0" d="M279.54,206.71c1.61.71,2.85,1.74,3.71,3.09.86,1.33,1.29,2.94,1.29,4.76s-.43,3.41-1.29,4.76c-.86,1.35-2.1,2.38-3.71,3.11-1.61.71-3.51,1.07-5.68,1.07h-5.66v7.24h-4.65v-25.07h10.33c2.16,0,4.07.36,5.68,1.07l-.02-.02ZM278.28,218.26c1.05-.86,1.59-2.1,1.59-3.69s-.51-2.83-1.59-3.69-2.59-1.29-4.63-1.29h-5.44v9.96h5.44c2.04,0,3.58-.43,4.63-1.29v-.02Z"/>
  <path class="st0" d="M315.86,205.64v25.07h-4.65v-10.76h-12.96v10.76h-4.65v-25.07h4.65v10.35h12.96v-10.35h4.65Z"/>
  <path class="st0" d="M329.66,205.64h4.65v25.07h-4.65v-25.07Z"/>
  <path class="st0" d="M348.79,229.4c-2.04-1.11-3.64-2.64-4.8-4.61-1.16-1.95-1.74-4.18-1.74-6.62s.58-4.67,1.76-6.62,2.79-3.49,4.82-4.61c2.04-1.11,4.33-1.67,6.86-1.67,2.06,0,3.92.36,5.64,1.07,1.69.71,3.13,1.76,4.31,3.11l-3,2.83c-1.82-1.95-4.05-2.94-6.71-2.94-1.71,0-3.26.39-4.63,1.14-1.35.75-2.42,1.8-3.19,3.13-.77,1.33-1.14,2.85-1.14,4.54s.39,3.21,1.14,4.54c.77,1.33,1.82,2.38,3.19,3.13s2.89,1.14,4.63,1.14c2.66,0,4.89-.99,6.71-2.98l3,2.87c-1.18,1.37-2.61,2.4-4.33,3.11s-3.58,1.07-5.64,1.07c-2.53,0-4.82-.56-6.86-1.67l-.02.04Z"/>
  <path class="st0" d="M156.55,243.05h13.61c3.32,0,6.28.64,8.85,1.93,2.57,1.29,4.59,3.11,6,5.46s2.14,5.08,2.14,8.16-.71,5.81-2.14,8.16c-1.44,2.36-3.43,4.18-6,5.46s-5.53,1.93-8.85,1.93h-13.61v-31.15.04ZM169.9,269.3c2.29,0,4.29-.43,6.02-1.31s3.06-2.12,4.01-3.75,1.39-3.49,1.39-5.64-.47-4.01-1.39-5.64-2.27-2.87-4.01-3.75-3.75-1.31-6.02-1.31h-7.56v21.36h7.56v.02Z"/>
  <path class="st0" d="M223.81,269.23v4.84h-23.36v-31.15h22.73v4.84h-16.95v8.1h15.04v4.76h-15.04v8.59h17.57v.02Z"/>
  <path class="st0" d="M243.14,273.52c-2.25-.69-4.01-1.59-5.31-2.72l1.99-4.5c1.26,1.01,2.85,1.84,4.69,2.46,1.86.64,3.71.96,5.59.96,2.31,0,4.05-.36,5.19-1.11s1.71-1.71,1.71-2.94c0-.88-.32-1.63-.96-2.21s-1.46-1.03-2.42-1.35c-.99-.32-2.31-.71-4.01-1.11-2.38-.56-4.29-1.14-5.76-1.69s-2.72-1.46-3.79-2.66c-1.05-1.2-1.59-2.83-1.59-4.86,0-1.71.47-3.28,1.39-4.69.94-1.41,2.34-2.53,4.22-3.36,1.89-.84,4.2-1.24,6.92-1.24,1.91,0,3.77.24,5.61.71s3.43,1.16,4.76,2.06l-1.82,4.5c-1.37-.79-2.79-1.41-4.26-1.82s-2.91-.62-4.31-.62c-2.29,0-3.99.39-5.1,1.16s-1.67,1.8-1.67,3.06c0,.88.32,1.61.96,2.19.64.56,1.46,1.01,2.42,1.33.99.32,2.31.71,4.01,1.11,2.31.54,4.22,1.09,5.7,1.67s2.74,1.46,3.81,2.66c1.05,1.18,1.59,2.79,1.59,4.8,0,1.71-.47,3.28-1.39,4.67-.94,1.39-2.36,2.51-4.24,3.34-1.91.84-4.22,1.24-6.94,1.24-2.4,0-4.71-.34-6.96-1.03h-.02Z"/>
  <path class="st0" d="M276.93,242.94h5.79v31.15h-5.79v-31.15Z"/>
  <path class="st0" d="M320.32,258.15h5.46v12.41c-1.61,1.29-3.47,2.25-5.61,2.94-2.14.69-4.33,1.03-6.58,1.03-3.17,0-6.04-.69-8.59-2.08s-4.56-3.28-6-5.72c-1.46-2.42-2.19-5.19-2.19-8.23s.73-5.81,2.19-8.23c1.46-2.42,3.47-4.33,6.02-5.72,2.57-1.37,5.44-2.08,8.66-2.08,2.61,0,4.99.43,7.11,1.29,2.14.86,3.92,2.12,5.38,3.79l-3.64,3.56c-2.38-2.38-5.23-3.56-8.59-3.56-2.21,0-4.16.45-5.85,1.37s-3.04,2.21-4.01,3.88c-.96,1.65-1.46,3.56-1.46,5.7s.47,3.94,1.46,5.61c.96,1.67,2.29,2.98,4.01,3.92s3.64,1.41,5.81,1.41c2.42,0,4.56-.54,6.41-1.61v-9.71l.02.02Z"/>
  <path class="st0" d="M365.61,242.94v31.15h-4.76l-17.18-21.08v21.08h-5.74v-31.15h4.76l17.18,21.08v-21.08h5.74Z"/>
  <circle class="st0" cx="229.72" cy="159.33" r="32.76"/>
  <ellipse class="st0" cx="343.2" cy="156.43" rx="33.55" ry="31.9" transform="translate(131.51 468.59) rotate(-80.36)"/>
  <path class="st0" d="M278.53,123.51h.56c5.04,0,9.13,4.09,9.13,9.13v49.9c0,5.04-4.09,9.13-9.13,9.13h-9.68v-59.03c0-5.04,4.09-9.13,9.13-9.13h0Z"/>
  <path class="st1" d="M295.35,132.38c2.34.06,4.14.19,5.64.56,3.66.88,5.89,4.59,5.19,8.29l-1.41,7.26s-.09.04-.09,0c-.51-3.54-.71-6.94-2.68-9.02-2.04-2.12-4.86-3.26-8.48-3.41-7.14-.3-14.68,3.26-22.65,10.69-4.16,4.11-8.63,7.89-13.5,11.33v.04c.19,1.5.28,3,.28,4.54-.02,3.94-.84,7.69-2.42,11.27s-3.69,6.66-6.3,9.23-5.72,4.61-9.32,6.13c-3.6,1.52-7.37,2.27-11.29,2.27-6.41,0-12.26-1.97-17.55-5.89-1.18-.88-2.27-1.84-3.26-2.91-4.44-4.74-7.07-10.22-7.89-16.48-.62-4.74-.09-9.32,1.56-13.73s4.24-8.23,7.74-11.4c3.49-3.17,7.56-5.36,12.19-6.56,3.51-.94,7.01-1.2,10.52-.71,3.51.47,6.77,1.46,9.79,2.96,3.02,1.5,6.02,3.32,8.16,6.17.45.6.79,1.07,1.09,1.5,1.8,2.51,1.91,5.85.3,8.46l-1.33,2.16s-.06.02-.06,0c-.71-1.65-1.48-3.15-2.31-4.5-2.38-3.96-5.55-7.14-9.53-9.49-1.54-.92-3.13-1.67-4.76-2.25-5.57-2.01-11.12,3.04-9.47,8.74h0c.94,3.71,2.96,6.73,6,9.06,3.09,2.25,6.45,3.49,10.16,3.73s7.26-.45,10.76-2.08c6.86-3.62,13.2-8.08,19.01-13.33l.09-.09v-3.84c0-2.98,1.86-5.66,4.65-6.71l1.89-.71v6.39s.04.04.06.04c6.99-4.56,14.25-8.01,19.28-7.74l-.04-.02ZM241.7,183.89c3.19-1.91,5.94-4.61,7.35-7.84.13-.28.24-.56.34-.86,1.63-4.37,2.72-8.93,2.19-13.8,0-.04-.04-.06-.06-.04-3.86,1.95-7.93,2.7-12.23,2.29-4.33-.41-8.19-1.97-11.59-4.67-3.39-2.89-5.38-6.54-6-10.93-.34-1.93-.45-3.9.26-5.72,1.05-2.7,3.64-3.3,2.7-5.04-1.31-2.38-7.37.99-10.48,2.96-3.41,2.14-5.94,5.14-7.59,9-1.65,3.84-2.23,8.01-1.76,12.51.47,4.5,1.99,8.78,4.54,12.83,1.91,3.04,4.24,5.64,6.99,7.76,5.01,3.88,11.48,5.61,17.76,4.44,2.53-.47,5.19-1.48,7.59-2.91v.02ZM277.85,142.56s-.06.15-.09.19c-.04.11-.09.24-.15.34-.09.21-.15.45-.28.66-.3.49-.58.99-.79,1.52-.28.69-.47,1.44-.51,2.19-.04.62,0,1.24,0,1.86v40.58c-2.7.81-6.54,1.61-6.6,1.61v-37.35c.24-4.37,3.86-8.1,8.42-11.63v.02Z"/>
  <path class="st1" d="M204.18,152.71c-2.34,1.99-4.78,3.88-7.33,5.68v.04c.17,1.5.28,3,.28,4.52-.02,3.92-.84,7.67-2.42,11.23-1.59,3.58-3.66,6.64-6.28,9.19-2.61,2.55-5.7,4.61-9.28,6.11-3.58,1.52-7.33,2.27-11.27,2.27-6.39,0-12.21-1.95-17.48-5.87-1.16-.86-2.25-1.84-3.26-2.89-4.44-4.71-7.05-10.18-7.84-16.41-.62-4.71-.09-9.28,1.56-13.69,1.65-4.41,4.22-8.21,7.69-11.36s7.52-5.34,12.15-6.54c3.49-.94,6.99-1.18,10.48-.71s6.75,1.46,9.77,2.94,6.02,3.3,8.14,6.15c.45.6.79,1.07,1.09,1.48,1.8,2.51,1.91,5.83.3,8.44l-1.33,2.16s-.06.02-.06,0c-.71-1.65-1.48-3.15-2.31-4.48-2.36-3.94-5.53-7.11-9.49-9.47-1.52-.9-3.11-1.65-4.74-2.25-5.55-2.01-11.08,3.04-9.45,8.72h0c.94,3.69,2.94,6.71,5.98,9.02,3.06,2.23,6.43,3.47,10.11,3.73s7.24-.45,10.71-2.08c4.91-2.59,9.53-5.61,13.91-9.04M181.26,184.13c3.17-1.91,5.91-4.59,7.33-7.82.13-.28.24-.56.34-.84,1.63-4.37,2.7-8.89,2.16-13.76,0-.04-.04-.06-.06-.04-3.84,1.95-7.91,2.7-12.19,2.29-4.31-.41-8.16-1.97-11.55-4.67-3.36-2.87-5.36-6.51-5.98-10.88-.34-1.93-.45-3.9.26-5.7,1.05-2.68,3.62-3.3,2.68-5.01-1.31-2.38-7.33.99-10.43,2.94-3.41,2.14-5.91,5.14-7.56,8.96-1.65,3.84-2.23,7.99-1.76,12.47.47,4.5,1.99,8.76,4.52,12.79,1.91,3.04,4.22,5.61,6.96,7.71,4.99,3.86,11.44,5.59,17.7,4.44,2.53-.47,5.19-1.48,7.56-2.91l.02.04Z"/>
  <path class="st1" d="M356.23,132.87h9.71v57.83h-9.71l1.54-5.96c.39-1.46-1.39-2.57-2.51-1.54-2.94,2.7-6.36,4.74-10.31,6.06-6.19,2.1-12.43,2.08-18.71-.09-5.57-1.91-10.46-5.55-13.93-10.31-3.66-5.04-5.53-10.69-5.55-16.93-.02-5.87,1.76-11.7,5.1-16.52,3.77-5.46,8.81-9.19,15.11-11.16s12.02-1.86,18,.13c4.8,1.61,8.87,4.26,12.15,7.93.56.62,1.54.11,1.33-.69l-2.25-8.76h.02ZM349.93,184.21c3.41-2.14,5.94-5.14,7.59-9s2.23-8.01,1.74-12.51c-1.11-10.2-8.57-21.71-18.88-24.62-6.58-1.84-13.95.43-18.9,5.12-5.23,4.97-8.53,13.09-7.74,20.33.49,4.5.56,6.19,3.11,10.24,1.91,3.04,4.24,5.64,6.99,7.76,2.74,2.12,5.61,3.64,8.55,4.59,2.96.94,5.98,1.26,9.06.96s5.91-1.24,8.46-2.89l.02.02Z"/>
  <path class="st1" d="M105.32,177.53c10.69,2.87,19.39,8.72,26.12,17.55,6.73,8.83,10.09,18.77,10.09,29.83,0,6.62-1.31,12.94-3.92,19.01s-6.09,11.25-10.48,15.6-9.6,7.82-15.64,10.39c-6.04,2.57-12.38,3.88-19.01,3.88l-59.72-.09c-.04-99.85-.09-150.14-.09-150.8l61.45.32c7.71,0,14.31,2.74,19.78,8.21,5.42,5.42,8.12,12.04,8.12,19.86v.24c0,4.54-.94,9.08-3.04,13.11-3.15,5.98-7.69,10.28-13.67,12.92v-.02ZM85.31,269.7v-.09c9.38.06,16.01-2.87,23.78-8.16,4.35-2.98,8.81-6.79,11.83-11.1,5.4-7.69,6.21-16.11,6.28-25.54.06-9.15-1.61-16.13-6.6-23.68-2.85-4.29-8.78-10.11-12.98-13.09-8.18-5.76-12.06-8.06-21.77-8.12h-38.55c-3.24,0-3.21,3.58-3.21,5.42,0,12.98-.02,27.85-.09,47.97-.02,9.21-.04,16.71-.04,22.46,0,7.67,6.19,13.88,13.88,13.88h27.45l.02.04ZM86.4,127.26h-30.1c-6.75,0-12.23,5.46-12.21,12.23,0,7.65.02,16.58.02,30.1,0,2.23,0,6.15,3.49,6.15h39.19c6.73,0,12.38-2.34,16.97-7.03,4.63-4.74,6.96-10.39,6.96-16.97v-.56c0-7.16-2.72-13.18-8.18-18.04-4.39-3.92-10.24-5.87-16.13-5.87v-.02Z"/>
</svg>
